<!DOCTYPE svg PUBLIC "-//W3C//DTD SVG 20010904//EN" "http://www.w3.org/TR/2001/REC-SVG-20010904/DTD/svg10.dtd">
<svg version="1.0" xmlns="http://www.w3.org/2000/svg" width="64px" height="64px" viewBox="0 0 640 640" preserveAspectRatio="xMidYMid meet">
<g id="layer101" fill="#ff0000" stroke="none">
 <path d="M280 611 c0 -25 -5 -30 -47 -42 -66 -18 -144 -96 -162 -161 -12 -43 -17 -48 -42 -48 -27 0 -29 -3 -29 -40 0 -37 2 -40 29 -40 25 0 30 -5 42 -47 18 -66 96 -144 162 -162 42 -12 47 -17 47 -42 0 -27 3 -29 40 -29 37 0 40 2 40 29 0 25 5 30 48 42 65 18 143 96 161 162 12 42 17 47 42 47 27 0 29 3 29 40 0 37 -2 40 -29 40 -25 0 -30 5 -42 48 -18 65 -96 143 -161 161 -43 12 -48 17 -48 42 0 27 -3 29 -40 29 -37 0 -40 -2 -40 -29z m128 -120 c67 -34 102 -93 102 -171 0 -111 -79 -190 -190 -190 -111 0 -190 79 -190 190 0 111 77 189 188 190 33 0 67 -7 90 -19z"/>
 <path d="M219 421 c-37 -37 -39 -42 -39 -101 0 -59 2 -64 39 -101 37 -37 42 -39 101 -39 59 0 64 2 101 39 37 37 39 42 39 101 0 59 -2 64 -39 101 -37 37 -42 39 -101 39 -59 0 -64 -2 -101 -39z"/>
 </g>

</svg>