<!DOCTYPE svg PUBLIC "-//W3C//DTD SVG 20010904//EN" "http://www.w3.org/TR/2001/REC-SVG-20010904/DTD/svg10.dtd">
<svg version="1.0" xmlns="http://www.w3.org/2000/svg" width="38px" height="38px" viewBox="0 0 380 380" preserveAspectRatio="xMidYMid meet">
<g id="layer101" fill="#ff0000" stroke="none">
 <path d="M105 366 c-37 -17 -80 -62 -94 -99 -14 -36 -14 -118 0 -154 26 -69 95 -113 179 -113 84 0 153 44 179 113 14 36 14 118 0 154 -14 38 -57 83 -96 99 -41 18 -129 17 -168 0z m132 -40 c7 -7 -9 -75 -22 -92 -12 -17 -14 -17 -38 -1 -14 9 -37 29 -51 44 -23 25 -24 28 -8 39 9 6 26 14 37 17 20 5 75 1 82 -7z m93 -98 c0 -14 -8 -18 -35 -18 -40 0 -39 -1 -23 53 l12 39 23 -28 c13 -16 23 -37 23 -46z m-162 -37 c12 -7 22 -16 22 -21 0 -6 -9 -6 -22 -1 -13 5 -47 12 -75 16 -51 7 -53 8 -47 33 13 53 24 56 63 19 20 -19 46 -40 59 -46z m166 -28 c-3 -10 -11 -28 -16 -40 l-11 -22 -38 22 c-22 12 -37 27 -36 32 3 8 37 17 94 24 7 0 10 -6 7 -16z m-180 -33 c5 -5 0 -23 -12 -41 l-21 -33 -35 38 c-20 20 -36 42 -36 48 0 12 90 1 104 -12z m105 -66 c-10 -13 -78 -29 -86 -20 -3 3 5 19 17 36 21 30 22 30 50 13 21 -12 26 -20 19 -29z"/>
 </g>

</svg>