<!DOCTYPE svg PUBLIC "-//W3C//DTD SVG 20010904//EN" "http://www.w3.org/TR/2001/REC-SVG-20010904/DTD/svg10.dtd">
<svg version="1.0" xmlns="http://www.w3.org/2000/svg" width="19px" height="38px" viewBox="0 0 190 380" preserveAspectRatio="xMidYMid meet">
<g id="layer101" fill="#ff0000" stroke="none">
 <path d="M40 290 c0 -83 -1 -90 -20 -90 -16 0 -20 -7 -20 -35 0 -28 4 -35 20 -35 17 0 20 -7 20 -45 0 -64 24 -85 95 -85 l55 0 0 34 c0 30 -3 35 -27 38 -22 2 -29 9 -31 31 -3 24 0 27 27 27 24 0 31 4 31 19 0 35 -12 51 -36 51 -24 0 -24 2 -24 90 l0 90 -45 0 -45 0 0 -90z"/>
 </g>

</svg>