<!DOCTYPE svg PUBLIC "-//W3C//DTD SVG 20010904//EN" "http://www.w3.org/TR/2001/REC-SVG-20010904/DTD/svg10.dtd">
<svg version="1.0" xmlns="http://www.w3.org/2000/svg" width="51px" height="64px" viewBox="0 0 510 640" preserveAspectRatio="xMidYMid meet">
<g id="layer101" fill="#ff0000" stroke="none">
 <path d="M27 633 c-20 -19 5 -89 50 -142 2 -3 10 5 19 17 8 12 24 22 35 22 10 0 19 2 19 5 0 11 -32 70 -48 88 -15 17 -62 23 -75 10z"/>
 <path d="M190 531 c-80 -26 -157 -100 -178 -169 -33 -109 -2 -235 73 -301 53 -46 94 -61 170 -61 78 0 119 15 173 64 57 52 84 120 80 204 l-3 67 -17 -55 c-54 -174 -195 -251 -322 -176 -93 54 -120 142 -72 240 35 72 88 108 165 114 53 4 61 2 91 -25 81 -72 29 -223 -77 -223 -39 0 -69 23 -83 66 -10 30 -9 38 5 54 9 10 24 20 33 22 15 4 17 -1 13 -34 -4 -52 8 -63 53 -48 67 22 72 75 11 129 -50 44 -93 42 -140 -5 -20 -20 -40 -47 -46 -61 -15 -40 -10 -106 11 -140 31 -52 61 -66 130 -61 116 8 189 90 198 222 4 67 2 74 -23 104 -15 18 -46 42 -68 54 -44 22 -137 32 -177 19z"/>
 </g>

</svg>