<!DOCTYPE svg PUBLIC "-//W3C//DTD SVG 20010904//EN" "http://www.w3.org/TR/2001/REC-SVG-20010904/DTD/svg10.dtd">
<svg version="1.0" xmlns="http://www.w3.org/2000/svg" width="64px" height="64px" viewBox="0 0 640 640" preserveAspectRatio="xMidYMid meet">
<g id="layer101" fill="#ff0000" stroke="none">
 <path d="M29 611 l-29 -29 0 -252 0 -252 29 -29 29 -29 193 0 193 0 -34 35 -34 35 -137 0 c-112 0 -141 3 -153 16 -24 23 -24 425 0 448 23 24 425 24 448 0 13 -12 16 -41 16 -153 l0 -137 35 -34 35 -34 0 193 0 193 -29 29 -29 29 -252 0 -252 0 -29 -29z"/>
 <path d="M210 423 c0 -18 42 -143 48 -143 11 0 107 99 101 104 -8 7 -149 44 -149 39z"/>
 <path d="M313 318 l-51 -53 115 -109 114 -109 52 51 52 52 -110 110 c-60 60 -112 110 -115 110 -3 0 -29 -24 -57 -52z"/>
 <path d="M545 90 c-48 -48 -48 -50 -30 -70 10 -11 28 -20 40 -20 27 0 85 59 85 86 0 18 -28 54 -41 54 -3 0 -27 -22 -54 -50z"/>
 </g>

</svg>