<!DOCTYPE svg PUBLIC "-//W3C//DTD SVG 20010904//EN" "http://www.w3.org/TR/2001/REC-SVG-20010904/DTD/svg10.dtd">
<svg version="1.0" xmlns="http://www.w3.org/2000/svg" width="48px" height="39px" viewBox="0 0 480 390" preserveAspectRatio="xMidYMid meet">
<g class="twitter" id="layer106" fill="#ff0000" stroke="none">
 <path d="M40 369 l-45 -21 58 -12 c55 -12 99 -36 67 -36 -8 0 -31 -14 -50 -30 -27 -23 -31 -30 -16 -30 15 0 13 -5 -13 -35 -34 -39 -39 -55 -16 -55 19 0 19 -5 -1 -36 -15 -22 -15 -86 -1 -100 2 -3 20 11 39 29 23 22 57 40 95 50 80 23 83 22 83 -17 0 -25 7 -40 26 -55 31 -25 99 -28 130 -7 17 12 22 12 39 0 27 -20 38 -17 25 5 -14 26 -13 31 5 25 21 -8 19 10 -4 30 -11 10 -21 38 -25 69 -14 104 -69 183 -158 226 -61 29 -175 29 -238 0z"/>
 </g>

</svg>